<svg version="1.0" xmlns="http://www.w3.org/2000/svg" viewBox="0 0 939 1280"><path fill="#fff" d="M463.2 4.7c-31.4 31.5-53 136.6-58.3 283.8l-1.1 31-3.2 3c-1.7 1.6-13.3 11.6-25.6 22.2-12.4 10.5-25.6 22-29.4 25.5l-6.8 6.3-.9 10c-.5 5.5-2.1 21.5-3.5 35.5s-5.2 53.1-8.4 86.9c-3.9 40.1-6.4 61.9-7.2 62.9-.7.8-40.4 36.2-88.3 78.6-47.8 42.4-99.1 87.8-114 100.9-14.8 13.2-40.5 35.9-57 50.6-16.4 14.6-35.3 31.4-42 37.2-6.6 5.8-13.1 11.8-14.5 13.3l-2.5 2.8-.3 37.1-.3 37.1 5.8 5.9c3.2 3.2 11.9 11.1 19.3 17.5 7.4 6.5 16.9 14.9 21 18.8 7.6 7.3 19.1 15.4 21.8 15.4 1.6 0 189.6 62.7 192.5 64.2 1.4.7 1.7 2.2 1.7 8.1v7.2l-13.2 12.8c-7.3 7.1-19.8 18.5-27.8 25.3-8 6.8-16.1 13.9-18.1 15.7-2 1.7-8.1 7-13.5 11.7-5.4 4.7-13.8 12.3-18.6 17l-8.8 8.5-.5 22c-.2 12.1-.7 30.8-1 41.5-.7 22.1-.3 23.8 5.5 25.2 3.1.8 33.2 10.4 63.5 20.3 5.5 1.8 11.6 3.6 13.5 4 1.9.4 4.9 1.5 6.5 2.3 1.7.9 3.5 1.6 4 1.7 2.5.3 7.4 1.8 11.7 3.7l4.7 2.1 4.3-2.7c11.4-7.1 17.2-12 45.7-38.6 9.1-8.6 22.7-20.9 30.2-27.5 7.4-6.6 18.9-16.8 25.6-22.7l12-10.6.8-26.9c.4-14.7 1-28.4 1.4-30.5l.6-3.6 14.7 8.4c8.2 4.6 15.2 8.4 15.7 8.4s8.7-3.8 18.2-8.5 17.7-8.5 18.1-8.5c.4 0 .8 15.3.8 34.1v34.1l5.8 6 5.8 6 5.7-6.1 5.7-6v-34c0-22.3.3-34.1 1-34.1.6 0 8.7 3.8 18 8.5s17.5 8.5 18.2 8.5c.7 0 7.8-3.8 15.8-8.4 8-4.6 14.8-8.1 15.2-7.8.4.4 1.2 14.2 1.8 30.7.9 26.2 1.3 30.2 2.8 31.6.9.9 22 19.4 46.8 41 24.8 21.7 49.5 43.2 54.8 47.9 5.4 4.7 10.5 8.8 11.4 9.2 1.1.5 21.9-5.8 56.7-17.1l55-17.9-.3-15.4c-1.5-64.6-1.8-69.6-4-71.5-1.2-1-23.5-21.4-49.7-45.3l-47.6-43.5.3-8 .3-8 39.5-13.4c21.7-7.3 67.1-22.6 100.9-33.8l61.3-20.6 29.9-26.4 29.9-26.5V855l-2.7-2.9c-1.6-1.6-32.5-29.1-68.8-61.2S789.6 722 775 709c-14.6-12.9-55.5-49.1-90.8-80.4-35.5-31.5-64.5-57.9-64.7-59-.3-1.2-2.8-26-5.5-55.1-2.8-29.2-6.4-66.5-8-83-1.7-16.5-3.5-35-4.1-41-.7-7.3-1.7-12-2.9-13.9-2.1-3.4-12.9-13.1-40.5-36.5-11.1-9.3-20.7-18.2-21.4-19.7-1.3-3-2-13.9-4.1-66.2-.6-15.1-1.5-30.8-2-35-.5-4.3-1.4-12.9-2-19.2-2.9-30.2-5.5-49.9-10.1-77-5.3-31.5-8-42.8-15.8-67.1-5.8-17.7-11-29-18.2-39.5C479.8 9.1 471 0 469 0c-.6 0-3.2 2.1-5.8 4.7z"/></svg>